<svg width="326" height="324" viewBox="0 0 326 324" fill="none" xmlns="http://www.w3.org/2000/svg">
<g clip-path="url(#clip0_419_10989)">
<path d="M257.429 40.5H200.795C195.104 24.84 180.201 13.5 162.587 13.5C144.973 13.5 130.07 24.84 124.379 40.5H67.7446C52.8408 40.5 40.6467 52.65 40.6467 67.5V256.5C40.6467 271.35 52.8408 283.5 67.7446 283.5H257.429C272.333 283.5 284.527 271.35 284.527 256.5V67.5C284.527 52.65 272.333 40.5 257.429 40.5ZM162.587 40.5C170.039 40.5 176.136 46.575 176.136 54C176.136 61.425 170.039 67.5 162.587 67.5C155.135 67.5 149.038 61.425 149.038 54C149.038 46.575 155.135 40.5 162.587 40.5ZM189.685 229.5H94.8424V202.5H189.685V229.5ZM230.332 175.5H94.8424V148.5H230.332V175.5ZM230.332 121.5H94.8424V94.5H230.332V121.5Z" fill="#E7E7E9"/>
</g>
<defs>
<clipPath id="clip0_419_10989">
<rect width="325.174" height="324" fill="white"/>
</clipPath>
</defs>
</svg>
